<?xml version="1.0" encoding="UTF-8"?>
<svg width="48px" height="48px" viewBox="0 0 48 48" version="1.1" xmlns="http://www.w3.org/2000/svg" xmlns:xlink="http://www.w3.org/1999/xlink">
    <!-- Generator: Sketch 52.1 (67048) - http://www.bohemiancoding.com/sketch -->
    <title>消息icon/默认态@2x</title>
    <desc>Created with Sketch.</desc>
    <g id="消息icon/默认态" stroke="none" stroke-width="1" fill="none" fill-rule="evenodd">
        <path d="M27.7767321,36 L17.0289915,41.7457813 C16.081831,42.2521368 14.8533105,41.978482 14.2850141,41.1345562 C14.0985157,40.8576041 14,40.5406974 14,40.2177185 L14,36 L8,36 C6.8954305,36 6,35.1045695 6,34 L6,8 C6,6.8954305 6.8954305,6 8,6 L40,6 C41.1045695,6 42,6.8954305 42,8 L42,28 C42,32.418278 38.418278,36 34,36 L27.7767321,36 Z M17.5,14 C16.6715729,14 16,14.6715729 16,15.5 C16,16.3284271 16.6715729,17 17.5,17 L30.5,17 C31.3284271,17 32,16.3284271 32,15.5 C32,14.6715729 31.3284271,14 30.5,14 L17.5,14 Z M17.5,23 C16.6715729,23 16,23.6715729 16,24.5 C16,25.3284271 16.6715729,26 17.5,26 L26.5,26 C27.3284271,26 28,25.3284271 28,24.5 C28,23.6715729 27.3284271,23 26.5,23 L17.5,23 Z" id="Rectangle-3" fill="#999999"></path>
    </g>
</svg>