<?xml version="1.0" encoding="UTF-8"?>
<svg width="48px" height="48px" viewBox="0 0 48 48" version="1.1" xmlns="http://www.w3.org/2000/svg" xmlns:xlink="http://www.w3.org/1999/xlink">
    <!-- Generator: Sketch 52.1 (67048) - http://www.bohemiancoding.com/sketch -->
    <title>工作台icon/默认态@2x</title>
    <desc>Created with Sketch.</desc>
    <g id="工作台icon/默认态" stroke="none" stroke-width="1" fill="none" fill-rule="evenodd">
        <path d="M7,6 L41,6 C42.1045695,6 43,6.8954305 43,8 L43,34 C43,35.1045695 42.1045695,36 41,36 L7,36 C5.8954305,36 5,35.1045695 5,34 L5,8 C5,6.8954305 5.8954305,6 7,6 Z M17.5,39 L30.5,39 C31.3284271,39 32,39.6715729 32,40.5 C32,41.3284271 31.3284271,42 30.5,42 L17.5,42 C16.6715729,42 16,41.3284271 16,40.5 C16,39.6715729 16.6715729,39 17.5,39 Z M20.7251991,20.2224631 L24.8486883,25.1302854 C24.9099253,25.2031704 24.9752189,25.2723784 25.0442438,25.3375645 C26.0354422,26.2736388 27.5802858,26.2099623 28.4947487,25.1953391 L34.611715,18.5166914 C35.1603927,17.9079175 35.1230689,16.9591058 34.5283499,16.3974613 C33.9336309,15.8358167 33.0067247,15.8740226 32.458047,16.4827966 L26.7128207,22.7489878 L22.6040857,17.858726 C21.7247215,16.812097 20.1829841,16.6933492 19.1605189,17.5934953 C19.0933,17.6541528 19.0933,17.6541528 19.0290593,17.7181024 L13.430898,23.4289591 C12.8577568,24.0136381 12.8561672,24.9632173 13.4273476,25.5499035 C13.998528,26.1365898 14.926184,26.1382169 15.4993252,25.5535379 L20.7251991,20.2224631 Z" id="合并形状" fill="#999999"></path>
    </g>
</svg>